# xmcd
#
# Track frame offsets:
#	150
#	16157
#	32135
#	43707
#	59654
#	75589
#	92249
#	107897
#	121991
#	136854
#	150147
#
# Disc length: 2225 seconds
# Revision: 0
# Processed by: cddbd v1.5.2PL0 Copyright (c) Steve Scherf et al.
# Submitted via: dBpowerAMP V12.0
#
DISCID=8308af0b
DTITLE=Flatt Lonesome - Flatt Lonesome
DYEAR=2013
DGENRE=Country
TTITLE0=You'll Get No More of Me
TTITLE1=Does My Ring Burn Your Finger
TTITLE2=Just Any Moment
TTITLE3=One Foot In the Grave
TTITLE4=Draggin' My Heart Around
TTITLE5=My Favorite Memory
TTITLE6=I'm Blue
TTITLE7=Jackson
TTITLE8=I'd Miss You
TTITLE9=On the Right Side
TTITLE10=Boondocks
EXTD=
EXTT0=
EXTT1=
EXTT2=
EXTT3=
EXTT4=
EXTT5=
EXTT6=
EXTT7=
EXTT8=
EXTT9=
EXTT10=
PLAYORDER=
